<svg width="134" height="28" viewBox="0 0 134 28" fill="none" xmlns="http://www.w3.org/2000/svg">
<path d="M14.28 2.39999C11.56 2.39999 8.92002 3.11999 6.60002 4.43999C4.28002 5.83999 2.44002 7.83999 1.32002 10.2C0.120017 12.56 -0.199983 15.2 0.200017 17.84C0.600017 20.48 1.80002 22.96 3.64002 24.96C5.48002 26.88 7.88002 28.24 10.52 28.84C13.24 29.36 16.04 29.04 18.52 27.96C21.08 26.88 23.28 25.04 24.8 22.68C26.32 20.24 27.08 17.44 27.08 14.56L27.08 13.96L20.84 13.96L20.84 14.56C20.84 16.48 20.2 18.32 19.04 19.72C17.88 21.2 16.24 22.12 14.44 22.12C12.64 22.12 11 21.2 9.84002 19.72C8.68002 18.24 8.04002 16.48 8.04002 14.56C8.04002 12.64 8.68002 10.88 9.84002 9.43999C11 8.03999 12.64 7.11999 14.44 7.11999C15.68 7.11999 16.88 7.47999 17.84 8.19999L21.48 4.23999C19.56 2.95999 17 2.39999 14.28 2.39999Z" fill="#0055A4"/>
<path d="M43.9193 2.79999H36.3193V28.4H43.9193V2.79999Z" fill="#0055A4"/>
<path d="M60.198 2.79999H53.118L47.038 17.88L54.718 28.4H62.798L57.518 20.32L63.598 9.71999L60.198 2.79999Z" fill="#0055A4"/>
<path d="M84.7193 2.79999L76.9993 14.36L85.0393 28.4H93.1193L85.0793 14.36L92.7993 2.79999H84.7193Z" fill="#0055A4"/>
<path d="M110.16 2.39999C107.44 2.39999 104.8 3.11999 102.48 4.43999C100.16 5.83999 98.3201 7.83999 97.2001 10.2C96.0001 12.56 95.6801 15.2 96.0801 17.84C96.4801 20.48 97.6801 22.96 99.5201 24.96C101.36 26.88 103.76 28.24 106.4 28.84C109.12 29.36 111.92 29.04 114.4 27.96C116.96 26.88 119.16 25.04 120.68 22.68C122.2 20.24 122.96 17.44 122.96 14.56L122.96 13.96L116.72 13.96L116.72 14.56C116.72 16.48 116.08 18.32 114.92 19.72C113.76 21.2 112.12 22.12 110.32 22.12C108.52 22.12 106.88 21.2 105.72 19.72C104.56 18.24 103.92 16.48 103.92 14.56C103.92 12.64 104.56 10.88 105.72 9.43999C106.88 8.03999 108.52 7.11999 110.32 7.11999C111.56 7.11999 112.76 7.47999 113.72 8.19999L117.36 4.23999C115.44 2.95999 112.88 2.39999 110.16 2.39999Z" fill="#0055A4"/>
<path d="M129.921 21.08C129.921 19.4 130.401 17.8 131.361 16.48C132.321 15.08 133.681 14.04 135.281 13.52V2.8H128.081V28.4H135.281V23.56C133.681 23 132.321 22.04 131.361 20.72C130.401 19.4 129.921 17.8 129.921 16.12L129.921 21.08Z" fill="#0055A4"/>
<path d="M22 26.6C20.6 25.84 19.4 24.64 18.52 23.12C18 22.24 17.68 21.24 17.52 20.2C17.36 19.16 17.4 18.12 17.64 17.12C17.88 16.12 18.32 15.16 18.96 14.32C19.52 13.48 20.28 12.76 21.16 12.2C22.04 11.64 23.04 11.28 24.08 11.16C25.12 11.04 26.16 11.12 27.16 11.44C28.16 11.76 29.08 12.28 29.84 13L26.24 16.68C25.92 16.44 25.56 16.28 25.16 16.16C24.76 16.04 24.36 16 23.96 16C23.2 16 22.48 16.28 21.92 16.8C21.36 17.32 21.04 18 20.96 18.76C20.88 19.52 21.12 20.28 21.6 20.84C22.08 21.4 22.76 21.72 23.48 21.72C23.84 21.72 24.2 21.64 24.52 21.52L28.12 25.12C26.68 26.28 24.88 26.84 23 26.84C22.68 26.84 22.32 26.76 22 26.6Z" fill="#00AEEF"/>
</g>
</svg>
